# xmcd CD database file
#
# Track frame offsets:
#	150
#	19153
#	41627
#	58600
#	78441
#	94645
#	114902
#	128557
#	147440
#	168106
#	191710
#
# Disc length: 2896 seconds
#
# Revision: 0
# Processed by: cddbd v1.5.1PL0 Copyright (c) Steve Scherf et al.
# Submitted via: CdAid (MTCDDB.DLL V2003.12.21)
#
DISCID=890b4e0b
DTITLE=Alex Rosario - Tierra Mala
DYEAR=2001
DGENRE=Latin
TTITLE0=Tierra Mala (Editado)
TTITLE1=Ramonita
TTITLE2=Solo Mia
TTITLE3=Voy A Olvirdarte
TTITLE4=Sonando Contigo
TTITLE5=El Chasco
TTITLE6=Bella Y Decente
TTITLE7=Golpes En El CorazonTitle 08
TTITLE8=Despues De Ti
TTITLE9=Quiero Saber De Ti
TTITLE10=TIerra Mal (Version Original)
EXTD=ID3G:  86 YEAR: 2001
EXTT0=
EXTT1=
EXTT2=
EXTT3=
EXTT4=
EXTT5=
EXTT6=
EXTT7=
EXTT8=
EXTT9=
EXTT10=
PLAYORDER=
